Coordinates
version=1
nRows=22
nColumns=24
inDegrees=yes

Units are S.I. units (second, meters, Newtons, ...)
Angles are in degrees.

endheader
time	pelvis_tilt	pelvis_list	pelvis_rotation	pelvis_tx	pelvis_ty	pelvis_tz	hip_flexion_r	hip_adduction_r	hip_rotation_r	knee_angle_r	ankle_angle_r	subtalar_angle_r	mtp_angle_r	hip_flexion_l	hip_adduction_l	hip_rotation_l	knee_angle_l	ankle_angle_l	subtalar_angle_l	mtp_angle_l	lumbar_extension	lumbar_bending	lumbar_rotation
      1.15800000	     -3.92465627	      0.80272816	     -2.88296473	      0.23913947	      1.07616807	      0.28904854	     18.48108817	     -5.16482872	     -7.89373700	    -68.75459540	      3.55571412	     -4.52365451	      3.74458326	     12.58020794	      1.72790200	     -0.22191529	    -18.18527260	     12.80088441	      3.40704161	      0.92765614	     -6.45490486	     -1.34460388	     -0.89568744
      1.16216667	     -3.92337234	      0.62195410	     -2.86958539	      0.24434596	      1.07740189	      0.28886836	     18.97095508	     -4.91626408	     -7.99809807	    -68.51789761	      3.85396259	     -4.12940599	      3.75021977	     11.99692392	      1.55539542	     -0.19190203	    -17.63564060	     12.80536071	      3.46709965	      0.91321389	     -6.47018289	     -1.13356350	     -0.99972765
      1.16633333	     -3.90887420	      0.43638684	     -2.85319530	      0.24953671	      1.07863393	      0.28871346	     19.43187962	     -4.65339470	     -8.10026037	    -68.21229923	      4.13832700	     -3.73748037	      3.76364209	     11.40033203	      1.37520062	     -0.16547886	    -17.08233798	     12.77884676	      3.52333973	      0.89634744	     -6.51041597	     -0.92134548	     -1.10387911
      1.17050000	     -3.90715196	      0.25300911	     -2.82900561	      0.25472947	      1.07978556	      0.28854801	     19.89394936	     -4.39122866	     -8.20953064	    -67.85080152	      4.41925513	     -3.33600615	      3.78546092	     10.82254486	      1.19707134	     -0.14092218	    -16.53604344	     12.75167511	      3.58047009	      0.87834184	     -6.53784529	     -0.70448076	     -1.20630907
      1.17466667	     -3.90362199	      0.06749574	     -2.79693437	      0.25991410	      1.08089291	      0.28838240	     20.34119716	     -4.12582151	     -8.32773305	    -67.43206240	      4.68746365	     -2.93371957	      3.81369730	     10.24663702	      1.01588820	     -0.11171192	    -15.99420146	     12.72983567	      3.64418029	      0.86176709	     -6.56502372	     -0.48613641	     -1.30734177
      1.17883333	     -3.90435313	     -0.11941740	     -2.76261067	      0.26509060	      1.08194234	      0.28823630	     20.77909196	     -3.85069469	     -8.44138921	    -66.95331509	      4.94248165	     -2.55258130	      3.84182589	      9.68301801	      0.82929180	     -0.09946127	    -15.46434705	     12.68198884	      3.71493658	      0.84816459	     -6.59849832	     -0.27055858	     -1.39262727
      1.18300000	     -3.87383177	     -0.28659293	     -2.70868365	      0.27027476	      1.08297148	      0.28804626	     21.16932706	     -3.61403705	     -8.58378421	    -66.43116335	      5.21740712	     -2.13863331	      3.88499320	      9.08166863	      0.67198786	     -0.05368101	    -14.92060070	     12.67847280	      3.76841760	      0.83008792	     -6.65156342	     -0.06679749	     -1.53025115
      1.18716667	     -3.86912450	     -0.46093965	     -2.65270196	      0.27545014	      1.08389670	      0.28787332	     21.57440232	     -3.35979937	     -8.72226573	    -65.85218895	      5.46753556	     -1.77735724	      3.93552861	      8.51867012	      0.50268454	     -0.01552869	    -14.39515038	     12.65227060	      3.82316879	      0.81017048	     -6.68272869	      0.14240557	     -1.65835488
      1.19133333	     -3.87409993	     -0.63745548	     -2.59729677	      0.28061480	      1.08474651	      0.28771749	     21.97742838	     -3.09580111	     -8.85375790	    -65.21825615	      5.69679452	     -1.45820772	      3.97273199	      7.97714209	      0.32614603	      0.00039013	    -13.89061171	     12.61801300	      3.89565624	      0.79688068	     -6.70475533	      0.34695158	     -1.74223236
      1.19550000	     -3.84695965	     -0.78149280	     -2.52673334	      0.28578488	      1.08557171	      0.28753592	     22.33711179	     -2.88300639	     -9.00653186	    -64.55530144	      5.94447767	     -1.12474384	      4.03412094	      7.39382505	      0.19172202	      0.05481959	    -13.36381825	     12.61016693	      3.93338186	      0.77622634	     -6.76208025	      0.52921750	     -1.90194019
      1.19966667	     -3.86646242	     -0.95153303	     -2.46305084	      0.29095818	      1.08625574	      0.28737395	     22.73088770	     -2.62874086	     -9.15081641	    -63.83025799	      6.14654350	     -0.88894114	      4.06431625	      6.87890004	      0.01911955	      0.05795312	    -12.87651758	     12.57905474	      4.01450634	      0.76664849	     -6.75714861	      0.74614635	     -1.96252592
      1.20383333	     -3.82717181	     -1.09369175	     -2.37720808	      0.29609282	      1.08695303	      0.28718423	     23.04995488	     -2.41955905	     -9.31309744	    -63.06994617	      6.37847822	     -0.59743959	      4.12649761	      6.30141165	     -0.11336365	      0.12422931	    -12.38150340	     12.59544014	      4.04852626	      0.74866188	     -6.84065283	      0.91096189	     -2.13897704
      1.20800000	     -3.85866328	     -1.22983001	     -2.31170069	      0.30126194	      1.08744802	      0.28703808	     23.44039321	     -2.20279228	     -9.45330440	    -62.27494853	      6.57439332	     -0.42558769	      4.15447410	      5.80877003	     -0.25047830	      0.12614607	    -11.90786285	     12.57483868	      4.12599888	      0.74047337	     -6.82213550	      1.09107200	     -2.19978372
      1.21216667	     -3.81490484	     -1.37435442	     -2.21286573	      0.30638688	      1.08802247	      0.28683625	     23.72370456	     -1.99472833	     -9.62805611	    -61.41654641	      6.76990044	     -0.21125201	      4.21875008	      5.24179567	     -0.38633620	      0.20741707	    -11.44155713	     12.59882578	      4.14345511	      0.72322271	     -6.91313194	      1.25889519	     -2.39101115
      1.21633333	     -3.85012502	     -1.50972780	     -2.12950827	      0.31154117	      1.08837521	      0.28668545	     24.08576181	     -1.78226949	     -9.78118302	    -60.52516189	      6.95446474	     -0.07290944	      4.25742346	      4.77260834	     -0.52297245	      0.23162840	    -11.00355014	     12.59504605	      4.19345604	      0.71281097	     -6.89657877	      1.42202383	     -2.47791499
      1.22050000	     -3.83838581	     -1.62531907	     -2.03822189	      0.31667806	      1.08871260	      0.28650812	     24.38866721	     -1.60390799	     -9.94459539	    -59.60568042	      7.12798069	      0.05110752	      4.31548430	      4.24889264	     -0.63207061	      0.29655151	    -10.55442010	     12.62926810	      4.21984596	      0.69830621	     -6.94118284	      1.57434345	     -2.63677228
      1.22466667	     -3.86620167	     -1.74040587	     -1.94658563	      0.32183092	      1.08891817	      0.28634541	     24.71804475	     -1.42240288	    -10.10535750	    -58.64029165	      7.29380172	      0.14017869	      4.37177172	      3.77826991	     -0.74513417	      0.35052633	    -10.12690726	     12.65266207	      4.24698919	      0.68461579	     -6.93329237	      1.72252521	     -2.76557177
      1.22883333	     -3.90473208	     -1.84629212	     -1.86348020	      0.32697317	      1.08901828	      0.28620918	     25.05003925	     -1.24452720	    -10.24945686	    -57.64074425	      7.46786474	      0.20652935	      4.40139718	      3.33508531	     -0.85229907	      0.36735805	     -9.73353410	     12.67452285	      4.30146214	      0.67801857	     -6.91667819	      1.84949697	     -2.83572009
      1.23300000	     -3.94160600	     -1.93928482	     -1.77451367	      0.33211512	      1.08903635	      0.28607006	     25.36812799	     -1.08701310	    -10.40016254	    -56.60693526	      7.62691104	      0.25873078	      4.43151702	      2.89184541	     -0.94465727	      0.40720742	     -9.34282060	     12.72233569	      4.34283565	      0.67188397	     -6.90113537	      1.97233599	     -2.93782500
      1.23716667	     -3.97177206	     -2.03470884	     -1.68610602	      0.33726345	      1.08900306	      0.28593184	     25.66086873	     -0.92705223	    -10.55027751	    -55.52813572	      7.77786448	      0.29314871	      4.46000653	      2.44579699	     -1.03968499	      0.44827653	     -8.96259403	     12.77813285	      4.37542543	      0.66654638	     -6.89527840	      2.09401905	     -3.04514459
      1.24133333	     -4.01893751	     -2.11053315	     -1.59938863	      0.34241247	      1.08884956	      0.28581525	     25.96311229	     -0.78707458	    -10.69153885	    -54.42168034	      7.92521789	      0.31577919	      4.48748768	      2.02575550	     -1.11507911	      0.49165828	     -8.59893180	     12.84218035	      4.40336224	      0.66187454	     -6.86847788	      2.19361372	     -3.15542466
      1.24550000	     -4.06269082	     -2.17636749	     -1.51054903	      0.34755780	      1.08861546	      0.28569383	     26.24936078	     -0.66229334	    -10.83527181	    -53.28276969	      8.04815541	      0.31742108	      4.53612691	      1.60141371	     -1.17768759	      0.57084747	     -8.23330535	     12.92670619	      4.39402353	      0.65417051	     -6.84470643	      2.29066943	     -3.32917418
